<svg width="189" height="50" viewBox="0 0 189 50" fill="none" xmlns="http://www.w3.org/2000/svg">
<mask id="mask0_1_254" style="mask-type:luminance" maskUnits="userSpaceOnUse" x="38" y="10" width="45" height="40">
<path d="M64.2509 10.2769C63.0323 10.2769 62.0444 11.2648 62.0444 12.4833C62.0444 13.7024 63.0323 14.6903 64.2509 14.6903C65.4699 14.6903 66.4578 13.7024 66.4578 12.4833C66.4578 11.2648 65.4699 10.2769 64.2509 10.2769ZM80.4471 27.932C83.3643 27.932 83.3664 32.3449 80.4471 32.3449H76.3358C73.4165 32.3449 73.418 27.932 76.3358 27.932H80.4471ZM52.6854 10.2769C55.6042 10.2769 55.6052 14.6903 52.6854 14.6903H52.0527C49.1329 14.6903 49.1334 19.1042 52.0527 19.1042H60.31C63.2283 19.1042 63.2293 23.5176 60.31 23.5176H56.7932H55.6583C52.7395 23.5176 52.74 27.932 55.6583 27.932H56.7932H67.4238C70.339 27.932 70.3436 32.3449 67.4238 32.3449H62.9471H61.8117C58.8919 32.3449 58.896 36.7588 61.8117 36.7588H62.9471H63.5584C66.4731 36.7588 66.4788 41.1727 63.5584 41.1727H54.2321H53.0967C50.1779 41.1727 50.18 45.5861 53.0967 45.5861H54.2321H57.1978C60.1151 45.5861 60.1176 49.9995 57.1978 49.9995H38.8176C39.5631 49.6106 40.2898 49.1687 40.9909 48.6737C48.566 43.3199 51.175 33.2649 47.1591 24.9035C47.1372 24.857 47.1168 24.8172 47.0907 24.7723C45.7094 22.3414 44.3062 19.9206 42.8998 17.5045C41.4996 15.098 40.0959 12.6252 38.6038 10.2764H52.6854V10.2769Z" fill="white"/>
</mask>
<g mask="url(#mask0_1_254)">
<path d="M83.3662 10.2769H38.6036V49.9999H83.3662V10.2769Z" fill="url(#paint0_linear_1_254)"/>
</g>
<path fill-rule="evenodd" clip-rule="evenodd" d="M70.8772 45.5866C73.7949 45.5866 73.7965 50 70.8772 50H66.7664C63.8465 50 63.8481 45.5866 66.7664 45.5866H70.8772ZM68.0589 19.1042C66.8398 19.1042 65.8519 20.0926 65.8519 21.3117C65.8519 22.5297 66.8398 23.5176 68.0589 23.5176C69.2774 23.5176 70.2658 22.5297 70.2658 21.3117C70.2658 20.0926 69.278 19.1042 68.0589 19.1042ZM76.555 36.7593C75.3365 36.7593 74.3476 37.7472 74.3476 38.9658C74.3476 40.1848 75.3365 41.1737 76.555 41.1737C77.7741 41.1737 78.7615 40.1848 78.7615 38.9658C78.7615 37.7472 77.7736 36.7593 76.555 36.7593ZM31.5123 45.233C36.8559 44.4247 41.057 40.1389 41.7362 34.7555C35.7262 34.7549 32.2864 39.4755 31.5123 45.233ZM17.6261 34.7549C18.3053 40.1384 22.5069 44.4242 27.8505 45.2325C27.0759 39.475 23.6372 34.7549 17.6261 34.7549ZM29.6814 21.0673C25.4451 21.0673 21.7145 23.2359 19.5407 26.5237C19.2258 27.1038 19.1952 27.7912 19.4473 28.3913L19.7213 28.8658C21.0031 30.5513 22.9059 28.9016 24.6715 28.351C26.1161 27.8999 27.8388 27.5463 29.6809 27.5529C31.5225 27.5463 33.2457 27.8999 34.6898 28.351C36.4559 28.9016 38.3577 30.5513 39.6405 28.8658L39.9145 28.3913C40.1666 27.7912 40.136 27.1038 39.8211 26.5237C37.6479 23.2359 33.9183 21.0673 29.6814 21.0673ZM45.2117 25.8399C43.7334 23.237 38.3521 13.9075 36.7523 11.3924C34.5831 7.8133 33.362 5.96201 32.7941 5.18996C31.7654 3.7918 30.1891 4.21074 29.1563 4.80675C27.9679 5.49205 27.0086 6.45035 27.4367 7.19127L31.8771 14.8827C32.1583 15.3685 31.4204 15.7961 31.1388 15.3093L25.6487 5.79924C25.0833 5.28896 23.3193 4.48986 21.2787 5.76556C19.6846 6.76111 19.5769 7.67042 20.1658 8.69098L24.7052 16.5549C24.9864 17.0401 24.248 17.4678 23.9678 16.981L18.5451 7.58929C17.7828 6.65293 16.2922 6.45647 14.4537 7.44437C12.8999 8.2797 12.6014 9.34362 13.0943 10.1973L17.9532 18.6149C18.2338 19.1001 17.4965 19.5272 17.2158 19.0409L7.24501 1.77263C6.28722 0.113211 4.81048 -0.65629 2.48769 0.68523C0.164908 2.02573 0.255736 3.54738 1.06453 4.94809L12.8678 25.3919C12.9856 25.6291 12.9504 25.918 12.7729 26.1221C12.5764 26.3466 12.2544 26.4124 11.986 26.2833C10.8869 25.7358 9.48819 25.0729 8.20484 24.5688C6.60818 24.0784 4.9212 24.3381 3.57509 25.1949C1.71564 26.3767 0.878277 28.6699 3.2577 29.867C8.40436 32.4561 14.7374 41.5947 18.0563 45.0289C23.8591 50.8629 33.0237 51.6564 39.742 46.9077C46.4629 42.1601 48.7735 33.2563 45.2117 25.8399Z" fill="white"/>
<path d="M100.959 18.638C102.288 18.714 103.38 19.2267 104.234 20.1761C105.089 21.1066 105.706 22.1699 106.085 23.3662C106.465 24.5625 106.655 25.7873 106.655 27.0405C106.655 28.2938 106.465 29.5186 106.085 30.7148C105.725 31.9111 105.108 32.984 104.234 33.9334C103.38 34.8639 102.288 35.3671 100.959 35.443H90.4768C89.9641 35.424 89.5273 35.2437 89.1666 34.9019C88.8248 34.5411 88.6444 34.1043 88.6254 33.5916V26.5278C88.6444 25.9961 88.8437 25.5594 89.2235 25.2176C89.6033 24.8568 90.059 24.6764 90.5907 24.6764C91.1034 24.6954 91.5401 24.8853 91.9009 25.2461C92.2617 25.5879 92.4516 26.0151 92.4706 26.5278V30.8573C92.4706 31.37 92.7364 31.6263 93.2681 31.6263H99.9901C100.712 31.5883 101.31 31.313 101.785 30.8003C102.259 30.2876 102.601 29.7084 102.81 29.0628C103.038 28.3982 103.152 27.7241 103.152 27.0405C103.152 26.3569 103.038 25.6923 102.81 25.0467C102.601 24.3821 102.259 23.7935 101.785 23.2808C101.31 22.7681 100.712 22.4927 99.9901 22.4548H90.4768C89.3375 22.3598 88.7203 21.7427 88.6254 20.6034C88.6254 20.0717 88.7963 19.6159 89.1381 19.2362C89.4989 18.8564 89.9451 18.657 90.4768 18.638H100.959ZM110.358 26.1006C110.719 25.1891 111.326 24.3726 112.181 23.651C113.054 22.9105 114.156 22.5307 115.485 22.5117H126.195C126.726 22.5117 127.172 22.7016 127.533 23.0814C127.913 23.4422 128.103 23.8884 128.103 24.4201C128.103 24.9518 127.913 25.4075 127.533 25.7873C127.172 26.1481 126.726 26.3285 126.195 26.3285H115.371C115.01 26.3285 114.697 26.4804 114.431 26.7842C114.165 27.069 113.956 27.4108 113.804 27.8096C113.671 28.2083 113.605 28.5881 113.605 28.9489V33.9334C113.491 35.0728 112.864 35.6899 111.725 35.7848C111.193 35.7848 110.728 35.6139 110.329 35.2721C109.95 34.9113 109.76 34.4651 109.76 33.9334V28.9774H109.788C109.788 27.99 109.978 27.031 110.358 26.1006ZM132.888 22.2269C133.401 22.2459 133.838 22.4358 134.198 22.7965C134.559 23.1383 134.749 23.5656 134.768 24.0783V33.9334C134.654 35.0728 134.027 35.6899 132.888 35.7848C132.356 35.7848 131.891 35.6139 131.492 35.2721C131.113 34.9113 130.923 34.4651 130.923 33.9334V24.0783C130.942 23.5466 131.141 23.1099 131.521 22.7681C131.901 22.4073 132.356 22.2269 132.888 22.2269ZM130.495 18.5241C130.495 17.9924 130.723 17.5367 131.179 17.1569C131.635 16.7771 132.185 16.5872 132.831 16.5872C133.477 16.5872 134.027 16.7771 134.483 17.1569C134.939 17.5367 135.167 17.9924 135.167 18.5241C135.167 19.0748 134.939 19.54 134.483 19.9198C134.027 20.2995 133.477 20.4894 132.831 20.4894C132.185 20.4894 131.635 20.2995 131.179 19.9198C130.723 19.54 130.495 19.0748 130.495 18.5241ZM142.743 33.9334C141.775 32.6232 140.806 30.9047 139.838 28.778L137.987 24.7904C137.892 24.5815 137.835 24.3536 137.816 24.1068C137.778 23.5751 137.939 23.1194 138.3 22.7396C138.661 22.3598 139.135 22.1699 139.724 22.1699C140.37 22.1699 140.844 22.3028 141.148 22.5687C141.471 22.8155 141.727 23.1383 141.917 23.5371L143.256 26.8411C143.598 27.6197 143.93 28.3602 144.253 29.0628C144.595 29.7464 144.974 30.373 145.392 30.9427C145.829 31.5124 146.313 31.8162 146.845 31.8542C147.357 31.8162 147.842 31.5124 148.297 30.9427C148.696 30.373 149.057 29.7464 149.38 29.0628C149.722 28.3602 150.063 27.6197 150.405 26.8411L151.744 23.5371C151.934 23.1383 152.181 22.8155 152.484 22.5687C152.807 22.3028 153.291 22.1699 153.937 22.1699C154.526 22.1699 155 22.3598 155.361 22.7396C155.722 23.1194 155.883 23.5751 155.845 24.1068C155.826 24.3536 155.769 24.5815 155.675 24.7904L153.823 28.778C152.855 30.9047 151.886 32.6232 150.918 33.9334C149.987 35.2247 148.63 35.8798 146.845 35.8988C145.041 35.8798 143.674 35.2247 142.743 33.9334ZM160.972 22.2269C161.485 22.2459 161.922 22.4358 162.283 22.7965C162.643 23.1383 162.833 23.5656 162.852 24.0783V33.9334C162.738 35.0728 162.112 35.6899 160.972 35.7848C160.441 35.7848 159.975 35.6139 159.577 35.2721C159.197 34.9113 159.007 34.4651 159.007 33.9334V24.0783C159.026 23.5466 159.225 23.1099 159.605 22.7681C159.985 22.4073 160.441 22.2269 160.972 22.2269ZM158.58 18.5241C158.58 17.9924 158.808 17.5367 159.263 17.1569C159.719 16.7771 160.27 16.5872 160.915 16.5872C161.561 16.5872 162.112 16.7771 162.567 17.1569C163.023 17.5367 163.251 17.9924 163.251 18.5241C163.251 19.0748 163.023 19.54 162.567 19.9198C162.112 20.2995 161.561 20.4894 160.915 20.4894C160.27 20.4894 159.719 20.2995 159.263 19.9198C158.808 19.54 158.58 19.0748 158.58 18.5241ZM172.223 35.443C170.552 35.3861 169.289 34.9968 168.435 34.2752C167.58 33.5347 166.963 32.7087 166.584 31.7972C166.204 30.8668 166.014 29.9268 166.014 28.9774C166.014 27.99 166.194 27.0405 166.555 26.1291C166.935 25.1986 167.552 24.3726 168.406 23.651C169.28 22.9105 170.381 22.5307 171.71 22.5117H180.939C182.268 22.5307 183.36 22.9105 184.215 23.651C185.088 24.3726 185.705 25.1986 186.066 26.1291C186.446 27.0405 186.636 27.99 186.636 28.9774C186.636 29.9268 186.446 30.8668 186.066 31.7972C185.686 32.7087 185.069 33.5347 184.215 34.2752C183.36 34.9968 182.097 35.3861 180.426 35.443H172.223ZM171.597 26.3285C171.236 26.3285 170.922 26.4804 170.657 26.7842C170.391 27.069 170.191 27.4108 170.058 27.8096C169.945 28.1893 169.888 28.5691 169.888 28.9489C169.888 29.3477 169.945 29.7464 170.058 30.1452C170.191 30.525 170.391 30.8668 170.657 31.1706C170.922 31.4554 171.236 31.6073 171.597 31.6263H181.053C181.414 31.6073 181.727 31.4554 181.993 31.1706C182.259 30.8668 182.449 30.525 182.563 30.1452C182.695 29.7464 182.762 29.3477 182.762 28.9489C182.762 28.5691 182.695 28.1893 182.563 27.8096C182.449 27.4108 182.259 27.069 181.993 26.7842C181.727 26.4804 181.414 26.3285 181.053 26.3285H171.597Z" fill="white"/>
<defs>
<linearGradient id="paint0_linear_1_254" x1="60.9849" y1="10.2769" x2="60.9849" y2="49.9999" gradientUnits="userSpaceOnUse">
<stop stop-color="white"/>
<stop offset="1" stop-color="white"/>
</linearGradient>
</defs>
</svg>
